<svg height="456pt" viewBox="0 -16 456 456" width="456pt" xmlns="http://www.w3.org/2000/svg"><path d="m388 144h64v24h-64zm0 0" fill="#e0e0e0"/><path d="m452 172h-64c-2.207031 0-4-1.792969-4-4v-24c0-2.207031 1.792969-4 4-4h64c2.207031 0 4 1.792969 4 4v24c0 2.207031-1.792969 4-4 4zm-60-8h56v-16h-56zm0 0" fill="#212a41"/><path d="m388 200h64v24h-64zm0 0" fill="#e0e0e0"/><path d="m452 228h-64c-2.207031 0-4-1.792969-4-4v-24c0-2.207031 1.792969-4 4-4h64c2.207031 0 4 1.792969 4 4v24c0 2.207031-1.792969 4-4 4zm-60-8h56v-16h-56zm0 0" fill="#212a41"/><path d="m388 256h64v24h-64zm0 0" fill="#e0e0e0"/><path d="m452 284h-64c-2.207031 0-4-1.792969-4-4v-24c0-2.207031 1.792969-4 4-4h64c2.207031 0 4 1.792969 4 4v24c0 2.207031-1.792969 4-4 4zm-60-8h56v-16h-56zm0 0" fill="#212a41"/><path d="m356 356h-288c-8.839844 0-16-7.160156-16-16v-256c0-8.839844 7.160156-16 16-16h288c8.839844 0 16 7.160156 16 16v256c0 8.839844-7.160156 16-16 16zm0 0" fill="#005b8a"/><path d="m356 360h-288c-11.03125 0-20-8.976562-20-20v-256c0-11.023438 8.96875-20 20-20h288c11.03125 0 20 8.976562 20 20v256c0 11.023438-8.96875 20-20 20zm-288-288c-6.617188 0-12 5.382812-12 12v256c0 6.617188 5.382812 12 12 12h288c6.617188 0 12-5.382812 12-12v-256c0-6.617188-5.382812-12-12-12zm0 0" fill="#212a41"/><path d="m388 356h-288c-8.839844 0-16-7.160156-16-16v-256c0-8.839844 7.160156-16 16-16h288c8.839844 0 16 7.160156 16 16v256c0 8.839844-7.160156 16-16 16zm0 0" fill="#0079a8"/><path d="m388 360h-288c-11.03125 0-20-8.976562-20-20v-256c0-11.023438 8.96875-20 20-20h288c11.03125 0 20 8.976562 20 20v256c0 11.023438-8.96875 20-20 20zm-288-288c-6.617188 0-12 5.382812-12 12v256c0 6.617188 5.382812 12 12 12h288c6.617188 0 12-5.382812 12-12v-256c0-6.617188-5.382812-12-12-12zm0 0" fill="#212a41"/><path d="m328 308h-192c-8.839844 0-16-7.160156-16-16v-160c0-8.839844 7.160156-16 16-16h192c8.839844 0 16 7.160156 16 16v160c0 8.839844-7.160156 16-16 16zm0 0" fill="#99a2b9"/><path d="m328 312h-192c-11.03125 0-20-8.976562-20-20v-160c0-11.023438 8.96875-20 20-20h192c11.03125 0 20 8.976562 20 20v160c0 11.023438-8.96875 20-20 20zm-192-192c-6.617188 0-12 5.382812-12 12v160c0 6.617188 5.382812 12 12 12h192c6.617188 0 12-5.382812 12-12v-160c0-6.617188-5.382812-12-12-12zm0 0" fill="#212a41"/><path d="m352 308h-192c-8.839844 0-16-7.160156-16-16v-160c0-8.839844 7.160156-16 16-16h192c8.839844 0 16 7.160156 16 16v160c0 8.839844-7.160156 16-16 16zm0 0" fill="#b7c0d7"/><path d="m352 312h-192c-11.03125 0-20-8.976562-20-20v-160c0-11.023438 8.96875-20 20-20h192c11.03125 0 20 8.976562 20 20v160c0 11.023438-8.96875 20-20 20zm-192-192c-6.617188 0-12 5.382812-12 12v160c0 6.617188 5.382812 12 12 12h192c6.617188 0 12-5.382812 12-12v-160c0-6.617188-5.382812-12-12-12zm0 0" fill="#212a41"/><path d="m4 144h64v24h-64zm0 0" fill="#e0e0e0"/><path d="m68 172h-64c-2.207031 0-4-1.792969-4-4v-24c0-2.207031 1.792969-4 4-4h64c2.207031 0 4 1.792969 4 4v24c0 2.207031-1.792969 4-4 4zm-60-8h56v-16h-56zm0 0" fill="#212a41"/><path d="m4 200h64v24h-64zm0 0" fill="#e0e0e0"/><path d="m68 228h-64c-2.207031 0-4-1.792969-4-4v-24c0-2.207031 1.792969-4 4-4h64c2.207031 0 4 1.792969 4 4v24c0 2.207031-1.792969 4-4 4zm-60-8h56v-16h-56zm0 0" fill="#212a41"/><path d="m4 256h64v24h-64zm0 0" fill="#e0e0e0"/><path d="m68 284h-64c-2.207031 0-4-1.792969-4-4v-24c0-2.207031 1.792969-4 4-4h64c2.207031 0 4 1.792969 4 4v24c0 2.207031-1.792969 4-4 4zm-60-8h56v-16h-56zm0 0" fill="#212a41"/><path d="m268 356v64h-24v-64zm0 0" fill="#e0e0e0"/><path d="m268 424h-24c-2.207031 0-4-1.792969-4-4v-64c0-2.207031 1.792969-4 4-4h24c2.207031 0 4 1.792969 4 4v64c0 2.207031-1.792969 4-4 4zm-20-8h16v-56h-16zm0 0" fill="#212a41"/><path d="m212 356v64h-24v-64zm0 0" fill="#e0e0e0"/><path d="m212 424h-24c-2.207031 0-4-1.792969-4-4v-64c0-2.207031 1.792969-4 4-4h24c2.207031 0 4 1.792969 4 4v64c0 2.207031-1.792969 4-4 4zm-20-8h16v-56h-16zm0 0" fill="#212a41"/><path d="m156 356v64h-24v-64zm0 0" fill="#e0e0e0"/><path d="m156 424h-24c-2.207031 0-4-1.792969-4-4v-64c0-2.207031 1.792969-4 4-4h24c2.207031 0 4 1.792969 4 4v64c0 2.207031-1.792969 4-4 4zm-20-8h16v-56h-16zm0 0" fill="#212a41"/><path d="m268 4v64h-24v-64zm0 0" fill="#e0e0e0"/><path d="m268 72h-24c-2.207031 0-4-1.792969-4-4v-64c0-2.207031 1.792969-4 4-4h24c2.207031 0 4 1.792969 4 4v64c0 2.207031-1.792969 4-4 4zm-20-8h16v-56h-16zm0 0" fill="#212a41"/><path d="m324 356v64h-24v-64zm0 0" fill="#e0e0e0"/><path d="m324 424h-24c-2.207031 0-4-1.792969-4-4v-64c0-2.207031 1.792969-4 4-4h24c2.207031 0 4 1.792969 4 4v64c0 2.207031-1.792969 4-4 4zm-20-8h16v-56h-16zm0 0" fill="#212a41"/><path d="m324 4v64h-24v-64zm0 0" fill="#e0e0e0"/><path d="m324 72h-24c-2.207031 0-4-1.792969-4-4v-64c0-2.207031 1.792969-4 4-4h24c2.207031 0 4 1.792969 4 4v64c0 2.207031-1.792969 4-4 4zm-20-8h16v-56h-16zm0 0" fill="#212a41"/><path d="m212 4v64h-24v-64zm0 0" fill="#e0e0e0"/><path d="m212 72h-24c-2.207031 0-4-1.792969-4-4v-64c0-2.207031 1.792969-4 4-4h24c2.207031 0 4 1.792969 4 4v64c0 2.207031-1.792969 4-4 4zm-20-8h16v-56h-16zm0 0" fill="#212a41"/><path d="m156 4v64h-24v-64zm0 0" fill="#e0e0e0"/><path d="m156 72h-24c-2.207031 0-4-1.792969-4-4v-64c0-2.207031 1.792969-4 4-4h24c2.207031 0 4 1.792969 4 4v64c0 2.207031-1.792969 4-4 4zm-20-8h16v-56h-16zm0 0" fill="#212a41"/><path d="m308.96875 204h24v64h-24zm0 0" fill="#f9ac2f"/><path d="m332.96875 272h-24c-2.207031 0-4-1.792969-4-4v-64c0-2.207031 1.792969-4 4-4h24c2.207031 0 4 1.792969 4 4v64c0 2.207031-1.792969 4-4 4zm-20-8h16v-56h-16zm0 0" fill="#212a41"/><path d="m308.96875 156h24v24h-24zm0 0" fill="#f9ac2f"/><path d="m332.96875 184h-24c-2.207031 0-4-1.792969-4-4v-24c0-2.207031 1.792969-4 4-4h24c2.207031 0 4 1.792969 4 4v24c0 2.207031-1.792969 4-4 4zm-20-8h16v-16h-16zm0 0" fill="#212a41"/><path d="m196.96875 268h-24l48-112h24zm0 0" fill="#f9ac2f"/><path d="m196.96875 272h-24c-1.34375 0-2.601562-.671875-3.335938-1.800781-.746093-1.128907-.863281-2.542969-.34375-3.773438l48-112c.632813-1.472656 2.078126-2.425781 3.679688-2.425781h24c1.34375 0 2.597656.671875 3.335938 1.800781.742187 1.128907.863281 2.542969.34375 3.773438l-48 112c-.632813 1.472656-2.082032 2.425781-3.679688 2.425781zm-17.9375-8h15.296875l44.574219-104h-15.292969zm0 0" fill="#212a41"/><path d="m256.96875 184-12 28 24 56h24zm0 0" fill="#f9ac2f"/><path d="m292.96875 272h-24c-1.601562 0-3.046875-.953125-3.679688-2.425781l-24-56c-.433593-1-.433593-2.140625 0-3.148438l12-28c1.261719-2.945312 6.09375-2.945312 7.359376 0l36 84c.519531 1.230469.398437 2.652344-.34375 3.773438-.738282 1.128906-1.992188 1.800781-3.335938 1.800781zm-21.359375-8h15.292969l-29.933594-69.839844-7.648438 17.839844zm0 0" fill="#212a41"/><path d="m100 344c-2.207031 0-4-1.792969-4-4v-256c0-2.207031 1.792969-4 4-4s4 1.792969 4 4v256c0 2.207031-1.792969 4-4 4zm0 0" fill="#1e97c6"/><path d="m388 344c-2.207031 0-4-1.792969-4-4v-256c0-2.207031 1.792969-4 4-4s4 1.792969 4 4v256c0 2.207031-1.792969 4-4 4zm0 0" fill="#005b8a"/><path d="m160 296c-2.207031 0-4-1.792969-4-4v-160c0-2.207031 1.792969-4 4-4s4 1.792969 4 4v160c0 2.207031-1.792969 4-4 4zm0 0" fill="#d5def5"/><path d="m352 296c-2.207031 0-4-1.792969-4-4v-160c0-2.207031 1.792969-4 4-4s4 1.792969 4 4v160c0 2.207031-1.792969 4-4 4zm0 0" fill="#99a2b9"/></svg>